<svg width="320" height="256" viewBox="0 0 320 256" fill="none" xmlns="http://www.w3.org/2000/svg">
<path d="M297.05 103.035C310.275 126.175 315.984 152.854 313.388 179.381L267.968 188.166" stroke="#3B3748" stroke-width="4" stroke-linecap="round" stroke-linejoin="round"/>
<path d="M272.222 115.151V129.033" stroke="#3B3748" stroke-width="4" stroke-linecap="round" stroke-linejoin="round"/>
<path d="M228.615 115.337C222.133 110.092 215.446 104.729 207.461 102.299C199.477 99.8687 189.823 101.049 184.37 107.358C178.766 113.847 179.14 123.614 181.532 131.85C188.329 155.238 209.832 173.636 233.988 176.725" stroke="#3B3748" stroke-width="4" stroke-linecap="round" stroke-linejoin="round"/>
<path d="M207.877 123.573C205.28 130.563 207.173 139.004 212.505 144.216" stroke="#3B3748" stroke-width="4" stroke-linecap="round" stroke-linejoin="round"/>
<path d="M251.813 195.322C250.977 196.975 250.123 198.698 250.082 200.55C250.042 202.402 251.066 204.419 252.859 204.886C255.659 205.62 257.825 202.502 259.04 199.873C260.255 197.244 261.247 193.507 258.847 191.835C257.234 190.717 254.89 191.375 253.517 192.779C252.144 194.182 251.512 196.128 250.923 197.999" stroke="#3B3748" stroke-width="4" stroke-linecap="round" stroke-linejoin="round"/>
<path d="M245.01 75.3279C231.914 67.0106 216.057 64.0536 200.469 66.473C186.225 68.8924 173.325 74.5376 164.187 86.3657C158.543 94.1616 156.393 104.914 161.685 112.917C155.455 115.579 161.182 112.111 161.685 112.917C155.455 115.579 150.064 120.006 146.003 125.407C141.921 130.819 139.214 137.142 138.115 143.832C137.035 150.504 137.8 157.345 140.327 163.614C142.893 169.876 146.953 175.413 152.152 179.743C157.285 184.045 163.464 187.136 170.057 188.394C170.868 188.55 171.684 188.677 172.502 188.776C166.302 190.873 160.099 192.999 154.079 195.582C142.684 200.623 131.665 206.806 124.677 218.096C118.496 228.58 116.346 241.484 122.258 252" stroke="#3B3748" stroke-width="4" stroke-linecap="round" stroke-linejoin="round"/>
<path d="M294.587 69.6128L307.359 60.7659" stroke="#3B3748" stroke-width="4" stroke-linecap="round" stroke-linejoin="round"/>
<path d="M280.419 60.3548L286.378 44.2631" stroke="#3B3748" stroke-width="4" stroke-linecap="round" stroke-linejoin="round"/>
<path d="M262.27 55.0187L260.243 40.575" stroke="#3B3748" stroke-width="4" stroke-linecap="round" stroke-linejoin="round"/>
<path d="M217.316 196.529C220.889 205.718 227.111 213.638 235.192 219.285" stroke="#3B3748" stroke-width="4" stroke-linecap="round" stroke-linejoin="round"/>
<path d="M117.305 167.743C94.0499 174.408 67.6527 168.862 49.0413 153.399C43.8194 149.06 38.9925 143.619 37.7536 136.942C36.5146 130.264 40.1724 122.35 46.7972 120.907C52.5701 119.649 58.5929 123.815 60.7322 129.324C62.8715 134.832 61.732 141.176 59.0982 146.466C54.4272 155.853 45.01 162.722 34.6414 164.294C24.2728 165.867 13.2457 162.104 6 154.523" stroke="#3B3748" stroke-width="4" stroke-linecap="round" stroke-linejoin="round"/>
<path d="M61.6727 189.617C46.6224 193.867 33.9451 205.688 28.6372 220.389" stroke="#3B3748" stroke-width="4" stroke-linecap="round" stroke-linejoin="round"/>
<path d="M168.714 6.07153C162.842 20.5583 164.39 37.8327 172.746 51.0453" stroke="#3B3748" stroke-width="4" stroke-linecap="round" stroke-linejoin="round"/>
<path d="M107.746 135.515C113.061 132.112 117.724 127.787 121.517 122.743C125.186 117.909 127.892 112.415 129.488 106.56C131.125 100.374 131.41 93.908 130.322 87.6025C129.315 81.498 126.947 75.6985 123.393 70.6345C119.805 65.5525 115.024 61.4291 109.471 58.6263C103.946 55.8682 97.7671 54.3467 91.5776 54.5134C85.5669 54.6515 79.7068 56.4216 74.6244 59.6344C69.6511 62.7917 65.5616 67.1615 62.74 72.3335C59.9611 77.5003 58.5313 83.4466 59.0796 89.3149C59.6193 95.2635 61.8096 100.943 65.4034 105.713C66.3594 106.99 67.4019 108.2 68.5237 109.334C69.648 110.436 70.8497 111.457 72.1196 112.388C74.5664 114.194 77.283 115.602 80.1689 116.56C86.2078 118.598 93.1068 118.635 99.1296 116.509C102.282 115.411 105.199 113.729 107.73 111.552C110.012 109.555 111.918 107.165 113.358 104.495C116.314 99.0543 117.389 92.4923 115.658 86.4842C113.931 80.668 109.987 75.7642 104.677 72.8308C101.952 71.3275 98.9292 70.4446 95.8239 70.2448C92.6983 70.0512 89.6425 70.7662 86.7991 72.0135C81.424 74.3684 77.0271 79.2718 75.4603 84.952C73.7806 91.0408 75.6377 98.0112 80.2603 102.355C81.401 103.453 82.7103 104.361 84.1384 105.044C85.6883 105.756 87.3425 106.215 89.0378 106.404C92.0403 106.726 95.0706 106.146 97.7429 104.74C99.0583 104.056 100.246 103.151 101.256 102.065C102.36 100.854 103.226 99.4446 103.809 97.9118C104.841 95.2881 104.884 92.1806 104.11 89.4843C103.321 86.6157 101.515 84.1322 99.0302 82.4975" stroke="#3B3748" stroke-width="4" stroke-linecap="round"/>
<path d="M79.6792 7.84311C85.565 3.61993 93.7244 2.80009 100.333 5.76788C106.942 8.73567 111.75 15.3809 112.505 22.5853C113.024 27.5451 111.511 32.943 107.633 36.0721C103.754 39.2012 97.3553 39.228 94.1571 35.4054C91.7383 32.5263 91.6335 28.1821 93.2218 24.7842C94.8102 21.3863 97.8471 18.8433 101.161 17.0825C109.105 12.8567 119.114 12.7814 127.128 16.8621C135.142 20.9428 140.953 29.1042 142.197 38.0183" stroke="#3B3748" stroke-width="4" stroke-linecap="round" stroke-linejoin="round"/>
<path d="M86.8296 195.809C89.832 197.762 92.4667 200.245 94.6095 203.14C96.6821 205.915 98.2108 209.068 99.1128 212.429C100.038 215.979 100.198 219.691 99.5835 223.31C99.0148 226.814 97.6769 230.142 95.6692 233.049C93.6422 235.966 90.9415 238.333 87.8043 239.941C84.6827 241.525 81.1921 242.398 77.6954 242.302C74.2997 242.223 70.9891 241.207 68.1178 239.363C65.3082 237.551 62.9979 235.042 61.4038 232.074C59.8339 229.108 59.0261 225.695 59.3359 222.327C59.6408 218.913 60.8782 215.653 62.9085 212.915C63.4485 212.182 64.0375 211.487 64.6712 210.836C65.3064 210.204 65.9853 209.618 66.7028 209.084C68.0851 208.047 69.6197 207.239 71.2501 206.689C74.6618 205.519 78.5593 205.498 81.9619 206.718C83.7427 207.348 85.3909 208.314 86.8205 209.563C88.11 210.71 89.1868 212.081 89.9998 213.614C91.67 216.737 92.2773 220.503 91.2995 223.952C90.3236 227.29 88.0954 230.105 85.0957 231.788C83.5564 232.651 81.8486 233.158 80.0943 233.273C78.3285 233.384 76.6022 232.973 74.9958 232.258C71.9592 230.906 69.4752 228.091 68.59 224.831C67.6411 221.336 68.6902 217.335 71.3017 214.842C71.9462 214.212 72.6859 213.691 73.4927 213.299C74.3683 212.89 75.3028 212.626 76.2606 212.518C77.9568 212.334 79.6687 212.666 81.1784 213.473C81.9215 213.866 82.5928 214.385 83.1629 215.009C83.787 215.704 84.2763 216.513 84.6053 217.392C85.1883 218.898 85.2126 220.682 84.7753 222.23C84.3297 223.876 83.3097 225.302 81.9057 226.24" stroke="#3B3748" stroke-width="4" stroke-linecap="round"/>
</svg>
