<svg width="20" height="20" viewBox="0 0 20 20" fill="none" xmlns="http://www.w3.org/2000/svg">
<path d="M16.6667 9.01671C16.4456 9.01671 16.2337 9.1045 16.0774 9.26079C15.9211 9.41706 15.8333 9.62903 15.8333 9.85004V15.8334C15.8333 16.0544 15.7455 16.2663 15.5892 16.4226C15.433 16.5789 15.221 16.6667 15 16.6667H3.33333C3.11231 16.6667 2.90035 16.5789 2.74407 16.4226C2.58779 16.2663 2.49999 16.0544 2.49999 15.8334V5.00004C2.49999 4.77903 2.58779 4.56707 2.74407 4.41079C2.90035 4.2545 3.11231 4.16671 3.33333 4.16671H10.15C10.371 4.16671 10.583 4.07891 10.7393 3.92263C10.8955 3.76635 10.9833 3.55439 10.9833 3.33337C10.9833 3.11236 10.8955 2.9004 10.7393 2.74412C10.583 2.58784 10.371 2.50004 10.15 2.50004H3.33333C2.67029 2.50004 2.0344 2.76343 1.56556 3.23227C1.09672 3.70111 0.833328 4.337 0.833328 5.00004V15.8334C0.833328 16.4964 1.09672 17.1323 1.56556 17.6011C2.0344 18.07 2.67029 18.3334 3.33333 18.3334H15C15.663 18.3334 16.2989 18.07 16.7678 17.6011C17.2366 17.1323 17.5 16.4964 17.5 15.8334V9.85004C17.5 9.62903 17.4122 9.41706 17.2559 9.26079C17.0996 9.1045 16.8877 9.01671 16.6667 9.01671ZM19.1 1.35004C19.0154 1.14642 18.8536 0.984603 18.65 0.900041C18.5498 0.85734 18.4422 0.834691 18.3333 0.833374H13.3333C13.1123 0.833374 12.9004 0.921171 12.7441 1.07745C12.5878 1.23373 12.5 1.44569 12.5 1.66671C12.5 1.88772 12.5878 2.09968 12.7441 2.25596C12.9004 2.41224 13.1123 2.50004 13.3333 2.50004H16.325L9.40833 9.40837C9.33022 9.48584 9.26823 9.57801 9.22592 9.67956C9.18361 9.78111 9.16183 9.89003 9.16183 10C9.16183 10.1101 9.18361 10.219 9.22592 10.3205C9.26823 10.4221 9.33022 10.5142 9.40833 10.5917C9.4858 10.6698 9.57796 10.7318 9.67951 10.7741C9.78106 10.8164 9.88998 10.8382 9.99999 10.8382C10.11 10.8382 10.2189 10.8164 10.3205 10.7741C10.422 10.7318 10.5142 10.6698 10.5917 10.5917L17.5 3.67504V6.66671C17.5 6.88772 17.5878 7.09968 17.7441 7.25596C17.9004 7.41224 18.1123 7.50004 18.3333 7.50004C18.5543 7.50004 18.7663 7.41224 18.9226 7.25596C19.0789 7.09968 19.1667 6.88772 19.1667 6.66671V1.66671C19.1653 1.55781 19.1427 1.45023 19.1 1.35004Z" fill="#3B3748"/>
</svg>
