<svg width="1360" height="723" viewBox="0 0 1360 723" fill="none" xmlns="http://www.w3.org/2000/svg">
<circle cx="240" cy="240" r="240" fill="#FFD400"/>
<path d="M257.461 153.58C260.082 144.109 267.474 136.088 276.704 132.7" stroke="#3B3748" stroke-width="4" stroke-linecap="round" stroke-linejoin="round"/>
<path d="M256.5 116.099C215.602 133.1 172.915 145.236 129.285 152.265C127.235 136.505 125.815 119.931 131.651 105.189C137.488 90.4464 152.85 78.4116 168.085 81.8599C181.011 84.788 189.572 97.3659 194.509 109.88C218.966 104.965 235.003 107.29 256.5 116.099Z" stroke="#3B3748" stroke-width="4" stroke-linecap="round" stroke-linejoin="round"/>
<path d="M168.5 152.265C164.978 161.381 156.214 168.269 146.5 169.557C148.492 170.895 150.153 172.667 151.356 174.739C152.56 176.812 153.274 179.13 153.446 181.518C153.581 183.909 153.169 186.299 152.24 188.508C151.311 190.716 149.891 192.685 148.086 194.265" stroke="#3B3748" stroke-width="4" stroke-linecap="round" stroke-linejoin="round"/>
<path d="M183.917 200.265C182.904 202.45 182.419 204.913 182.511 207.392C182.604 209.871 183.271 212.276 184.443 214.351C185.664 216.389 187.335 218.006 189.281 219.032C191.227 220.058 193.376 220.455 195.5 220.18" stroke="#3B3748" stroke-width="4" stroke-linecap="round" stroke-linejoin="round"/>
<path d="M213.916 132.265C227.837 150.237 236.079 172.292 237.5 195.38L201.5 209.265" stroke="#3B3748" stroke-width="4" stroke-linecap="round" stroke-linejoin="round"/>
<path d="M197.5 150.265L195.5 163.265" stroke="#3B3748" stroke-width="4" stroke-linecap="round" stroke-linejoin="round"/>
<path d="M128.5 151.866C118.621 148.067 106.411 151.22 99.7469 159.297C93.0823 167.375 92.4997 179.71 98.3764 188.344C86.9218 182.459 71.2242 189.06 66.3277 200.774C61.4312 212.487 66.7964 226.945 77.3771 234.228C87.9578 241.51 102.556 241.958 114.416 236.895" stroke="#3B3748" stroke-width="4" stroke-linecap="round" stroke-linejoin="round"/>
<path d="M110.5 117.265L93.5 115.265" stroke="#3B3748" stroke-width="4" stroke-linecap="round" stroke-linejoin="round"/>
<path d="M99.5 96.2649L114.5 100.265" stroke="#3B3748" stroke-width="4" stroke-linecap="round" stroke-linejoin="round"/>
<path d="M122.5 86.2649L107.5 77.2649" stroke="#3B3748" stroke-width="4" stroke-linecap="round" stroke-linejoin="round"/>
<path d="M378.272 63.6655C376.522 57.5418 378.269 50.5442 382.689 45.954C387.11 41.3639 394.042 39.3574 400.231 40.8722C404.491 41.9132 408.512 44.7685 409.948 48.9071C411.384 53.0458 409.508 58.349 405.392 59.8606C402.294 60.9982 398.663 59.8122 396.321 57.4851C393.979 55.158 392.777 51.8928 392.304 48.6285C391.166 40.798 394.068 32.4805 399.836 27.0684C405.605 21.6562 414.082 19.2603 421.831 20.8756" stroke="#3B3748" stroke-width="4" stroke-linecap="round" stroke-linejoin="round"/>
<path d="M308.775 109.116C305.211 94.9544 307.072 79.4035 313.286 70.6203C316.506 66.0708 322.773 62.441 328.206 64.0542C331.51 65.0342 336.696 69.9952 337.232 77.2225C338.381 92.6737 322.661 105.765 315.968 116.65C324.385 112.237 333.172 107.891 342.649 107.206C352.126 106.521 362.553 110.356 366.958 118.771C371.594 127.631 367.823 139.526 359.586 145.201C351.35 150.877 339.834 150.607 331.086 145.738C322.338 140.869 316.287 131.986 313.443 122.402C318.621 134.792 319.607 148.534 316.25 161.536C314.455 168.389 309.603 176.098 302.558 175.342C294.796 174.512 292.165 164.488 292.596 156.697C293.388 142.775 297.72 129.286 305.181 117.503C294.873 117.673 283.844 117.638 275.276 111.91C266.709 106.182 262.834 92.4596 270.481 85.5386C277.204 79.4636 287.289 79.434 294.834 85.937C301.7 91.8519 307.185 100.189 308.767 109.112" stroke="#3B3748" stroke-width="4" stroke-linecap="round" stroke-linejoin="round"/>
<path d="M318.874 139.744C330.352 158.641 337.131 180.185 339.142 202.183" stroke="#3B3748" stroke-width="4" stroke-linecap="round" stroke-linejoin="round"/>
<path d="M339.152 197.299C351.709 165.28 378.93 139.347 411.531 128.344C395.57 157.298 369.489 184.126 339.152 197.299Z" stroke="#3B3748" stroke-width="4" stroke-linecap="round" stroke-linejoin="round"/>
<path d="M336.516 221.583C333.036 225.964 329.096 230.274 326.426 233.494C333.241 228.778 346.493 207.688 352.771 211.202C364.408 218.632 306.878 300.677 233.435 297.942" stroke="#3B3748" stroke-width="4" stroke-linecap="round" stroke-linejoin="round"/>
<path d="M207.005 250.299C274.252 261.397 319.274 188.251 328.974 200.462C332.455 204.448 319.255 218.943 311.769 226.497C322.537 218.67 338.015 199.411 342.517 204.087C346.514 207.29 342.11 214.531 336.514 221.582" stroke="#3B3748" stroke-width="4" stroke-linecap="round" stroke-linejoin="round"/>
<circle cx="1120" cy="480" r="240" fill="#FFD400"/>
<path d="M1124.5 415C1121.23 421.289 1114.7 425.898 1107.5 427" stroke="#3B3748" stroke-width="4" stroke-linecap="round" stroke-linejoin="round"/>
<path d="M920.5 318.291C923.677 320.314 927.237 321.658 930.956 322.238C934.675 322.819 938.473 322.625 942.114 321.667C945.51 320.752 948.926 318.972 950.556 315.85C952.347 312.416 951.322 307.733 948.204 305.443C945.085 303.153 940.247 303.635 937.708 306.558C934.155 310.643 935.88 317.14 938.972 321.591C945.25 330.632 956.56 335.899 967.5 334.873" stroke="#3B3748" stroke-width="4" stroke-linecap="round" stroke-linejoin="round"/>
<path d="M1162.5 466C1078.23 479.145 1002.37 455.932 1003.18 475.234C1005.21 482.756 1026.38 484.258 1040.41 486.355C1022.65 486.568 995.275 480.109 994.817 489.817C993.899 500.929 1024.29 500.429 1038.44 503.843C1027.38 504.23 990.462 493.898 989.533 505.529C987.297 525.085 1097.74 540.198 1176.5 524.424" stroke="#3B3748" stroke-width="4" stroke-linecap="round" stroke-linejoin="round"/>
<path d="M1134.56 466C1133.85 445.871 1139.92 419.868 1149.5 402" stroke="#3B3748" stroke-width="4" stroke-linecap="round" stroke-linejoin="round"/>
<path d="M1163.5 415L1162.5 427" stroke="#3B3748" stroke-width="4" stroke-linecap="round" stroke-linejoin="round"/>
<path d="M1162.5 382.552C1172.68 364.19 1197.51 355.832 1216.57 364.336C1235.64 372.84 1246.21 397.02 1239.6 416.976C1248.38 412.34 1260.56 416.216 1265.12 425.1C1269.68 433.984 1265.8 446.257 1256.98 450.829C1273.69 454.496 1291.11 458.502 1304.25 469.553C1317.39 480.603 1324.52 501.004 1315.39 515.595C1306.91 529.134 1288.13 532.351 1272.74 528.467C1253.11 523.502 1236.12 508.845 1228.2 490.045" stroke="#3B3748" stroke-width="4" stroke-linecap="round" stroke-linejoin="round"/>
<path d="M1190.5 397C1193.9 410.736 1205.06 422.17 1218.5 425.705C1212.44 428.811 1207.94 434.916 1206.7 441.722C1205.46 448.528 1207.5 455.877 1212.07 461" stroke="#3B3748" stroke-width="4" stroke-linecap="round" stroke-linejoin="round"/>
<path d="M1026.5 303L1023.5 290" stroke="#3B3748" stroke-width="4" stroke-linecap="round" stroke-linejoin="round"/>
<path d="M1039.5 290V302" stroke="#3B3748" stroke-width="4" stroke-linecap="round" stroke-linejoin="round"/>
<path d="M1051.5 304L1055.5 290" stroke="#3B3748" stroke-width="4" stroke-linecap="round" stroke-linejoin="round"/>
<path d="M1063.5 467L1066.5 442" stroke="#3B3748" stroke-width="4" stroke-linecap="round" stroke-linejoin="round"/>
<path d="M1023.5 442L1026.5 466" stroke="#3B3748" stroke-width="4" stroke-linecap="round" stroke-linejoin="round"/>
<path d="M1061.5 335L1055.2 386H1023.02L1016.5 335" stroke="#3B3748" stroke-width="4" stroke-linecap="round" stroke-linejoin="round"/>
<path d="M1120.5 469V442" stroke="#3B3748" stroke-width="4" stroke-linecap="round" stroke-linejoin="round"/>
<path d="M1082.5 442L1084.5 468" stroke="#3B3748" stroke-width="4" stroke-linecap="round" stroke-linejoin="round"/>
<path d="M1029.5 394L1023.44 437H991.5V394" stroke="#3B3748" stroke-width="4" stroke-linecap="round" stroke-linejoin="round"/>
<path d="M1001.5 486L1005.5 446" stroke="#3B3748" stroke-width="4" stroke-linecap="round" stroke-linejoin="round"/>
<path d="M967.985 446L966.5 493H995.5" stroke="#3B3748" stroke-width="4" stroke-linecap="round" stroke-linejoin="round"/>
<path d="M1087.23 392L1088.5 437H1057.11L1050.5 392" stroke="#3B3748" stroke-width="4" stroke-linecap="round" stroke-linejoin="round"/>
<path d="M1016.5 355L1056.5 354" stroke="#3B3748" stroke-width="4" stroke-linecap="round" stroke-linejoin="round"/>
<path d="M991.5 410L1024.5 415" stroke="#3B3748" stroke-width="4" stroke-linecap="round" stroke-linejoin="round"/>
<path d="M1054.5 410L1088.5 408" stroke="#3B3748" stroke-width="4" stroke-linecap="round" stroke-linejoin="round"/>
<path d="M967.5 455L1004.5 458" stroke="#3B3748" stroke-width="4" stroke-linecap="round" stroke-linejoin="round"/>
<path d="M1026.5 453L1064.5 451" stroke="#3B3748" stroke-width="4" stroke-linecap="round" stroke-linejoin="round"/>
<path d="M1085.5 458L1119.5 453" stroke="#3B3748" stroke-width="4" stroke-linecap="round" stroke-linejoin="round"/>
<circle cx="736.5" cy="204.5" r="74.5" fill="#FFD400"/>
<path d="M673.449 146.166C689.784 168.534 724.998 190.527 758.062 190.04C770.191 189.86 783.049 188.794 792.861 181.643C802.674 174.492 807.435 159.217 799.636 149.918C791.152 139.811 772.507 144.303 767.069 156.322C761.631 168.341 767.782 183.353 778.543 190.989C789.304 198.625 803.398 200.049 816.498 198.46C851.839 194.17 883.642 168.226 894.942 134.468" stroke="#3B3748" stroke-width="4" stroke-linecap="round" stroke-linejoin="round"/>
<path d="M718.478 691.607L684.862 720.425" stroke="#3B3748" stroke-width="4" stroke-linecap="round" stroke-linejoin="round"/>
<path d="M705.703 642.212L636 658.925" stroke="#3B3748" stroke-width="4" stroke-linecap="round" stroke-linejoin="round"/>
<path d="M649.51 588.504L697.647 596.421" stroke="#3B3748" stroke-width="4" stroke-linecap="round" stroke-linejoin="round"/>
</svg>
