<svg width="360" height="90" viewBox="0 0 360 90" fill="none" xmlns="http://www.w3.org/2000/svg">
<path fill-rule="evenodd" clip-rule="evenodd" d="M250.743 35.4563C251.621 37.4583 251.836 37.6316 253.916 37.9125C254.083 38.026 253.97 38.8986 253.91 38.8866C253.784 38.8824 253.642 38.877 253.484 38.8711C252.749 38.8434 251.672 38.8029 250.324 38.8029C249.285 38.8029 248.189 38.8366 247.387 38.8612C246.925 38.8754 246.561 38.8866 246.362 38.8866C246.236 38.5226 246.236 38.1271 246.362 37.7631C246.898 37.704 247.427 37.6 247.946 37.4523C248.076 37.3934 248.18 37.2899 248.241 37.1605C248.301 37.0312 248.313 36.8846 248.274 36.7471C247.922 35.5519 247.211 33.6634 246.768 32.5638C246.745 32.5103 246.707 32.4639 246.66 32.4293C246.613 32.3947 246.558 32.3731 246.5 32.3666C246.004 32.3367 244.749 32.3367 243.733 32.3367C241.982 32.3367 241.82 32.3367 241.521 32.3666C241.451 32.3803 241.385 32.4101 241.328 32.4537C241.271 32.4972 241.224 32.5533 241.193 32.6176C241.091 32.9046 240.984 33.1991 240.878 33.4924C240.389 34.8485 239.908 36.1794 239.908 36.6216C239.908 37.1595 240.015 37.3567 240.81 37.5539C241.163 37.6376 241.766 37.7213 242.256 37.781C242.352 38.1541 242.325 38.5481 242.179 38.9045C241.984 38.9045 241.655 38.8941 241.23 38.8805C240.453 38.8558 239.354 38.8209 238.169 38.8209C237.953 38.8209 237.597 38.8266 237.186 38.8332C236.145 38.8499 234.754 38.8723 234.416 38.8209C233.746 38.7668 233.115 38.4889 232.623 38.032C231.635 37.2131 230.773 35.885 229.042 33.2177C228.815 32.868 228.573 32.4953 228.314 32.0977C227.334 30.6335 226.485 30.4662 225.78 30.4662C225.75 30.4662 225.696 30.5259 225.696 30.5797V36.036C225.726 36.9922 225.888 37.273 226.629 37.4703C226.951 37.5539 227.639 37.6675 228.236 37.7511C228.398 37.8647 228.344 38.7611 228.206 38.8747C227.609 38.8209 225.451 38.791 224.059 38.791C223.565 38.791 222.508 38.8236 221.348 38.8594C219.49 38.9168 217.37 38.9823 216.888 38.9344C216.145 38.8198 215.457 38.4749 214.921 37.9483C214.114 37.1768 212.988 35.2603 212.038 33.644C211.708 33.082 211.399 32.5562 211.133 32.1276C210.23 30.6634 209.824 30.3825 208.485 30.3825C208.461 30.3901 208.44 30.4052 208.425 30.4256C208.41 30.446 208.401 30.4707 208.401 30.4961C208.401 31.2205 208.416 32.3426 208.43 33.429C208.443 34.4487 208.455 35.4371 208.455 36.036C208.485 36.9922 208.646 37.3029 209.387 37.5001C209.716 37.5838 210.314 37.6675 210.911 37.7511C211.103 37.8647 210.995 38.7611 210.858 38.8747C210.597 38.8747 210.074 38.8588 209.483 38.8409C208.718 38.8177 207.839 38.791 207.272 38.791C206.744 38.791 205.936 38.8141 205.169 38.836C204.477 38.8558 203.818 38.8747 203.429 38.8747C203.265 38.5231 203.235 38.1232 203.346 37.7511L204.654 37.5539C205.718 37.3567 205.832 36.8248 205.885 35.3607V30.3287C204.385 30.3287 203.758 30.9742 203.107 31.9841C202.524 32.8909 201.842 34.0417 201.175 35.1658C200.933 35.5753 200.692 35.9813 200.459 36.3706C200.318 36.5477 200.189 36.7212 200.065 36.8891C199.422 37.7578 198.891 38.4756 197.268 38.7611C196.146 38.8941 195.015 38.9401 193.885 38.8986C193.76 38.5346 193.76 38.139 193.885 37.775C196.013 37.4105 196.64 37.0997 197.429 36.1734C197.687 35.8626 198.411 34.7761 199.09 33.7581C199.638 32.9362 200.156 32.1589 200.375 31.8706C201.224 30.6574 201.606 30.2929 202.342 29.8745C202.353 29.8471 202.359 29.8177 202.359 29.7879C202.359 29.7581 202.353 29.7286 202.342 29.7012C201.505 29.0558 200.907 27.9622 199.951 26.0199C198.708 23.743 198.379 23.4023 197.561 23.4023C196.848 23.4304 196.151 23.614 195.517 23.9402C195.403 23.994 195.212 23.6832 195.212 23.5996C195.263 22.9017 195.402 22.2131 195.624 21.5497C195.694 21.3743 195.817 21.2256 195.977 21.1254C196.345 20.9908 196.733 20.9161 197.124 20.9043C198.84 20.9043 199.772 22.1115 200.561 23.7968C201.186 25.3095 201.933 26.7685 202.796 28.1594C203.519 29.1156 204.242 29.2829 205.909 29.2829C205.909 27.5977 205.909 25.2488 205.856 24.0537C205.826 23.3007 205.718 22.8705 204.923 22.7031L203.507 22.4222C203.369 22.2788 203.369 21.4362 203.561 21.3226C203.781 21.3226 204.175 21.3361 204.647 21.3521C205.353 21.3762 206.235 21.4063 206.973 21.4063C207.905 21.4063 208.938 21.3727 209.694 21.348C210.131 21.3338 210.475 21.3226 210.654 21.3226C210.747 21.4956 210.795 21.6885 210.795 21.8844C210.795 22.0803 210.747 22.2732 210.654 22.4462L210.628 22.4507C210.152 22.532 209.805 22.5911 209.459 22.6732C208.611 22.8406 208.503 23.2051 208.473 24.2211C208.449 25.3446 208.419 27.5379 208.419 29.1693C208.419 29.2231 208.473 29.2829 208.587 29.2829C209.866 29.2829 210.654 29.0558 211.342 28.243C212.06 27.2248 212.697 26.1518 213.248 25.0338C214.993 21.9143 215.955 20.9043 217.748 20.9043C218.1 20.9511 218.437 21.0757 218.734 21.2688C218.812 21.2927 218.925 21.6334 218.925 21.6872C218.844 22.4498 218.66 23.1978 218.376 23.9103C218.352 24.0776 218.131 24.0776 218.077 24.0776C217.564 23.7445 216.972 23.5509 216.362 23.5159C215.896 23.5159 215.352 24.0239 214.419 25.6852C214.325 25.8522 214.235 26.0105 214.15 26.1609C212.989 28.2111 212.671 28.773 211.886 29.4801C211.865 29.5031 211.854 29.5329 211.854 29.5638C211.854 29.5946 211.865 29.6244 211.886 29.6474C212.625 30.0843 213.241 30.7011 213.678 31.4403C213.82 31.6606 214.028 32.0025 214.267 32.3965C214.845 33.3493 215.608 34.6064 216.069 35.1814L216.127 35.2551C217.618 37.1594 218.16 37.8513 220.479 37.7392C220.89 37.7187 221.3 37.6708 221.704 37.5958C222.768 37.4284 222.941 37.2671 223.001 35.8029V29.7311C223.001 29.1771 223.007 28.5114 223.013 27.8251C223.025 26.387 223.038 24.8585 223.001 24.0776C222.971 23.3246 222.864 22.8944 222.069 22.727C221.853 22.6791 221.598 22.639 221.308 22.5933C221.091 22.5592 220.854 22.522 220.599 22.476C220.523 22.2995 220.492 22.1074 220.506 21.916C220.521 21.7246 220.581 21.5395 220.682 21.3764C220.889 21.3764 221.231 21.3884 221.655 21.4034C222.35 21.4278 223.267 21.4601 224.173 21.4601C225.086 21.4601 226.16 21.4273 226.964 21.4028C227.444 21.3881 227.827 21.3764 228.021 21.3764C228.183 21.49 228.212 22.3625 228.021 22.4999C227.645 22.5566 227.272 22.6324 226.904 22.727C226.055 22.8944 225.673 23.1812 225.673 24.2749V29.2769C225.673 29.3367 225.726 29.3905 225.834 29.3905C226.34 29.4424 226.851 29.3838 227.332 29.2187C227.812 29.0536 228.252 28.7859 228.619 28.4343C229.472 27.3866 230.203 26.2459 230.8 25.0338C232.629 21.7171 233.609 20.9581 235.33 20.9581C235.658 20.9705 235.977 21.0672 236.256 21.239C236.35 21.3302 236.417 21.4462 236.448 21.5736C236.381 22.3923 236.198 23.1973 235.904 23.9641C235.874 24.0776 235.683 24.1374 235.629 24.1374C235.082 23.86 234.492 23.6781 233.884 23.5996C233.394 23.5996 232.904 23.8565 231.834 25.7689C230.693 27.7709 230.065 28.8287 229.193 29.5638C229.172 29.5928 229.162 29.6271 229.162 29.6624C229.162 29.6976 229.172 29.732 229.193 29.761C229.73 30.0419 230.388 30.8307 231.583 32.5459C231.71 32.7138 231.869 32.9256 232.047 33.1631C232.674 33.999 233.539 35.1533 234.093 35.8328L234.159 35.9161C234.95 36.9202 235.537 37.6664 236.561 37.6256C237.446 37.5958 237.816 36.777 238.491 35.1754C239.693 32.2172 242.352 25.1354 242.95 23.3067C243.167 22.7063 243.348 22.0937 243.494 21.472C243.832 21.4943 244.171 21.4943 244.509 21.472C244.874 21.4972 245.239 21.4972 245.603 21.472C245.741 22.0338 245.902 22.5716 246.093 23.1334C246.643 24.6992 249.679 32.9463 250.743 35.4563ZM245.902 30.8307C245.986 30.8307 246.063 30.6933 246.051 30.5797C245.967 30.342 245.867 30.0604 245.758 29.7505C245.193 28.1516 244.362 25.8007 243.972 24.8545C243.966 24.8545 243.956 24.8511 243.943 24.8468C243.907 24.8342 243.85 24.8144 243.81 24.8545C243.591 25.5588 243.255 26.5075 242.908 27.4908C242.518 28.5934 242.113 29.7395 241.838 30.6335C241.832 30.6736 241.839 30.7147 241.859 30.7503C241.878 30.7859 241.909 30.8142 241.946 30.8307H245.902Z" fill="#96949E"/>
<path d="M142.466 35.2532L142.352 35.5102C142.523 35.7215 142.77 35.8569 143.04 35.8867L143.213 35.6656C144.452 33.9726 145.084 31.9113 145.006 29.8149C145.006 25.4463 142.46 22.1116 138.366 21.1136L138.08 21.0359C137.904 21.245 137.808 21.5098 137.811 21.7829L138.074 21.9084C138.312 22.0068 138.542 22.1247 138.761 22.261C140.99 23.5638 142.574 26.3905 142.998 29.8209C143.31 31.6466 143.126 33.5226 142.466 35.2532Z" fill="#96949E"/>
<path d="M136.294 39.4305C133.306 39.4305 130.916 38.546 129.206 36.783C127.505 34.9599 126.591 32.5403 126.661 30.0479C126.624 28.8954 126.824 27.7476 127.249 26.6755C127.673 25.6034 128.313 24.6297 129.129 23.8147C130.416 22.4886 132.057 21.5594 133.856 21.1374L134.137 21.0657C134.28 21.0956 134.483 21.6633 134.424 21.7888L134.167 21.9203C133.898 22.0498 133.642 22.2038 133.402 22.3804C131.657 23.7609 130.898 26.4861 131.31 29.8507C131.462 31.0443 131.773 32.2121 132.236 33.3228C132.573 34.2721 133.098 35.1439 133.778 35.8866C134.35 36.6144 135.058 37.2235 135.864 37.6794C136.645 38.1108 137.518 38.3505 138.41 38.3787H138.697C138.81 38.4265 138.846 39.048 138.756 39.1436L138.475 39.1974C137.758 39.3465 137.027 39.4246 136.294 39.4305Z" fill="#96949E"/>
<path d="M106.979 21.4423C107.655 21.467 108.616 21.5021 109.82 21.5021C111.14 21.5021 112.006 21.4692 112.651 21.4446C113.034 21.43 113.339 21.4184 113.615 21.4184C113.743 21.7757 113.733 22.1683 113.585 22.5181C112.987 22.6316 112.437 22.7392 112.115 22.8288C111.565 22.9961 111.404 23.277 111.374 24.0958C111.342 24.664 111.348 25.2407 111.358 26.2121C111.365 26.8753 111.374 27.7225 111.374 28.8767C111.376 28.9445 111.395 29.0108 111.428 29.07C111.462 29.1292 111.508 29.1797 111.565 29.2173H115.987C119.537 29.2173 120.051 29.2173 120.296 29.1636C120.351 29.1575 120.402 29.1306 120.437 29.0883C120.473 29.046 120.491 28.9916 120.487 28.9365V23.7312C120.5 23.5462 120.454 23.3619 120.355 23.205C120.256 23.0481 120.11 22.9268 119.938 22.8587C119.359 22.6585 118.756 22.5359 118.145 22.4941C117.953 22.3507 118.007 21.538 118.145 21.3945C118.421 21.3945 118.836 21.4083 119.33 21.4246C120.055 21.4486 120.951 21.4782 121.826 21.4782C122.787 21.4782 123.891 21.4424 124.656 21.4177C125.061 21.4046 125.371 21.3945 125.513 21.3945C125.593 21.5668 125.634 21.7545 125.634 21.9443C125.634 22.1342 125.593 22.3218 125.513 22.4941C124.986 22.5408 124.465 22.645 123.959 22.8049C123.326 23.026 123.272 23.4025 123.218 24.3229C123.165 25.2432 123.165 26.5759 123.165 29.809C123.165 32.313 123.165 35.2951 123.248 36.2812C123.302 37.0402 123.517 37.3509 124.067 37.5183C124.701 37.6904 125.349 37.8044 126.003 37.8589C126.111 38.0262 126.057 38.8988 125.842 38.9824C125.58 38.9824 125.111 38.9691 124.546 38.9532C123.692 38.929 122.621 38.8988 121.718 38.8988C120.482 38.8988 119.298 38.9394 118.492 38.967L118.491 38.967C118.32 38.9729 118.165 38.9782 118.031 38.9824C117.893 38.6206 117.893 38.2207 118.031 37.8589C118.624 37.8178 119.211 37.7136 119.782 37.5481C120.242 37.3808 120.38 37.07 120.463 36.3529C120.499 35.7714 120.487 34.3907 120.475 33.009C120.469 32.3177 120.463 31.626 120.463 31.0341C120.455 30.9816 120.43 30.9335 120.391 30.8977C120.351 30.8618 120.301 30.8404 120.248 30.8369H115.933C113.806 30.8369 111.702 30.8369 111.457 30.8907C111.404 30.8907 111.35 31.0042 111.35 31.0341V36.072C111.404 37.0282 111.595 37.3091 112.336 37.5063C112.924 37.6687 113.523 37.7905 114.129 37.8708C114.228 38.2531 114.179 38.6587 113.991 39.0063C113.911 39.0063 113.746 39.0002 113.505 38.9913C112.855 38.9672 111.651 38.9227 110.059 38.9227C108.742 38.9227 107.674 38.9593 106.951 38.9841C106.582 38.9967 106.302 39.0063 106.127 39.0063C106.001 38.6424 106.001 38.2468 106.127 37.8828C106.315 37.8525 106.488 37.8264 106.648 37.8023C107.086 37.7363 107.426 37.6851 107.71 37.6019C108.451 37.3569 108.613 36.9565 108.672 35.6597C108.702 34.7035 108.702 32.5939 108.702 30.1437C108.702 27.4125 108.702 24.6575 108.672 24.1675C108.619 23.3786 108.511 23.0679 107.884 22.8706C107.295 22.7158 106.696 22.6039 106.091 22.536C105.962 22.1717 105.977 21.7721 106.133 21.4184C106.326 21.4184 106.61 21.4288 106.979 21.4423Z" fill="#96949E"/>
<path d="M192.015 33.9922C191.667 34.8242 191.247 35.6241 190.76 36.3827C190.162 37.2253 189.78 37.4524 189.038 37.4524C187.643 37.4906 186.246 37.4447 184.855 37.3149C184.66 37.1989 184.499 37.0332 184.389 36.8348C184.279 36.6364 184.223 36.4124 184.228 36.1854C184.174 35.0619 184.174 32.8687 184.174 31.04C184.174 30.9264 184.252 30.8188 184.335 30.8188C185.59 30.8188 187.389 30.8188 188.291 30.9025C188.475 30.9169 188.649 30.9905 188.787 31.1124C188.925 31.2342 189.019 31.3975 189.056 31.5778C189.181 32.0001 189.271 32.4318 189.325 32.8687C189.74 33.0241 190.196 33.0241 190.61 32.8687C190.58 31.9961 190.556 31.0758 190.556 30.1137C190.556 29.2937 190.637 28.4738 190.699 27.8449C190.718 27.6533 190.735 27.4795 190.748 27.3288C190.355 27.1464 189.911 27.1063 189.493 27.2152C189.418 27.6332 189.318 28.0463 189.194 28.4523C189.158 28.6388 189.065 28.8095 188.928 28.9411C188.791 29.0727 188.617 29.1587 188.429 29.1873C187.502 29.2785 186.224 29.2752 184.994 29.2721C184.772 29.2716 184.552 29.271 184.335 29.271C184.252 29.271 184.174 29.1276 184.174 29.0738V23.5877C184.174 23.4203 184.341 23.0259 184.556 22.9901C184.725 22.962 186.964 22.9778 188.13 22.986C188.456 22.9883 188.698 22.9901 188.787 22.9901C189.085 22.9716 189.379 23.065 189.611 23.2518C189.843 23.4387 189.997 23.7055 190.042 24C190.219 24.5372 190.32 25.0964 190.341 25.6614C190.743 25.7967 191.18 25.7753 191.566 25.6016C191.617 24.2509 191.773 22.9062 192.033 21.5797C192.033 21.5259 191.949 21.4422 191.895 21.4123C191.238 21.4721 189.797 21.496 188.728 21.496H183.218C182.297 21.496 181.29 21.4666 180.47 21.4427C179.906 21.4262 179.43 21.4123 179.13 21.4123C179.042 21.5747 178.988 21.754 178.974 21.9383C178.96 22.1226 178.984 22.3079 179.046 22.4821C179.598 22.5524 180.145 22.6562 180.684 22.7928C181.281 22.9901 181.419 23.2411 181.473 24.1674C181.503 24.6753 181.503 27.0658 181.503 29.5459C181.503 32.6655 181.503 35.6237 181.473 36.1197C181.419 37.0221 181.144 37.3568 180.534 37.6018C180.131 37.7644 179.694 37.824 179.261 37.7751C178.066 37.7751 177.714 37.1237 176.99 35.4564C175.921 32.9523 172.891 24.7351 172.347 23.1574C172.145 22.6176 171.982 22.0645 171.857 21.502C171.493 21.5222 171.128 21.5222 170.763 21.502C170.427 21.5199 170.09 21.5199 169.753 21.502C169.605 22.1209 169.424 22.7314 169.21 23.3307C168.612 25.1594 165.958 32.2232 164.757 35.1755C163.903 37.2193 163.526 37.8229 161.978 37.8169C161.381 37.8169 160.185 37.4345 160.066 36.5022C160.006 35.3189 160.006 29.9463 160.006 29.9463C160.006 27.777 160.006 25.3566 160.09 24.1494C160.174 23.1335 160.472 22.9542 161.07 22.7689C161.529 22.6591 161.994 22.5753 162.462 22.5179C162.6 22.4044 162.6 21.4781 162.462 21.4183C162.088 21.4183 161.523 21.4359 160.912 21.4549C160.188 21.4774 159.397 21.502 158.775 21.502C157.95 21.502 157.08 21.4747 156.333 21.4513C155.771 21.4337 155.278 21.4183 154.926 21.4183C154.765 21.4781 154.735 22.3506 154.897 22.5179C155.429 22.5695 155.958 22.6534 156.48 22.7689C157.299 22.996 157.329 23.247 157.383 24.0658C157.424 24.9008 157.42 26.3316 157.415 27.7862C157.414 28.2367 157.413 28.6895 157.413 29.1276C157.413 29.271 157.383 29.3009 157.245 29.3547C156.314 29.7518 155.311 29.9551 154.299 29.9523C152.632 29.9523 150.504 29.5878 150.42 26.6295C150.42 25.5598 150.42 24.1016 150.474 23.51C150.528 22.9183 150.779 22.745 152.112 22.5239C152.192 22.3482 152.236 22.1582 152.241 21.9652C152.246 21.7722 152.212 21.5801 152.142 21.4004C152.02 21.4004 151.739 21.4131 151.371 21.4299C150.67 21.4617 149.651 21.508 148.813 21.508C148.108 21.508 147.409 21.4826 146.781 21.4597C146.269 21.4412 145.805 21.4243 145.424 21.4243C145.263 21.508 145.233 22.3805 145.371 22.5239C145.629 22.573 145.858 22.611 146.064 22.645C146.334 22.6896 146.563 22.7274 146.763 22.7749C147.582 22.9721 147.773 23.3725 147.773 24.2391V26.3487C147.773 28.3208 148.072 29.2471 148.478 29.8089C149.464 31.1655 150.964 31.6017 153.038 31.6017C154.488 31.5605 155.914 31.2144 157.221 30.5858C157.329 30.532 157.359 30.532 157.359 30.6694C157.359 31.8647 157.359 33.8547 157.329 35.4504C157.299 37.046 157.245 37.4524 156.289 37.6735C155.913 37.7572 155.393 37.8468 154.735 37.9305C154.574 37.9305 154.598 38.8568 154.735 39.0241C155.158 39.0241 155.736 39.0067 156.364 38.9877C157.11 38.9651 157.927 38.9405 158.638 38.9405H164.56C165.741 38.9405 166.75 38.9754 167.465 39.0001C167.857 39.0136 168.16 39.0241 168.355 39.0241C168.448 38.8535 168.503 38.6648 168.516 38.4709C168.53 38.277 168.501 38.0824 168.433 37.9006C167.947 37.8497 167.464 37.7739 166.986 37.6735C166.09 37.4524 165.952 37.0281 166.221 36.1257C167.04 33.4842 168.875 28.1893 170.046 24.8725C170.066 24.8584 170.09 24.8508 170.115 24.8508C170.139 24.8508 170.164 24.8584 170.184 24.8725C171.331 27.8606 174.17 35.8747 174.439 36.8847C174.489 37.0181 174.486 37.1657 174.43 37.2969C174.375 37.4282 174.271 37.533 174.14 37.5898C173.618 37.7557 173.078 37.86 172.532 37.9006C172.457 38.0783 172.418 38.2694 172.418 38.4624C172.418 38.6554 172.457 38.8464 172.532 39.0241C172.731 39.0241 173.094 39.013 173.556 38.9988C174.356 38.9741 175.45 38.9405 176.488 38.9405H181.73C181.916 38.9405 182.528 38.9504 183.368 38.964L183.37 38.964C185.22 38.994 188.18 39.0421 190.168 39.0421C191.56 39.0421 191.776 38.815 191.913 38.4803C192.46 37.1781 192.861 35.8191 193.108 34.4285C192.793 34.1816 192.413 34.0302 192.015 33.9922Z" fill="#96949E"/>
<path d="M58.8647 65.16C61.1847 65.16 62.7847 63.56 62.7847 61.4C62.7847 59.24 61.1847 57.64 59.0247 57.64C57.0247 57.64 56.2407 58.92 56.2407 58.92H56.2247C56.5447 56.28 57.6647 55.16 60.2247 55.16H62.1447V53.8H60.2247C56.8647 53.8 54.9447 55.72 54.9447 60.68C54.9447 63.56 56.5447 65.16 58.8647 65.16ZM58.8647 63.96C57.3447 63.96 56.2247 62.84 56.2247 61.4C56.2247 59.96 57.3447 58.84 58.8647 58.84C60.3847 58.84 61.5047 59.96 61.5047 61.4C61.5047 62.84 60.3847 63.96 58.8647 63.96ZM63.4178 65H64.7778L66.6178 58.2H68.0578L69.8978 65H71.2578L69.0178 57H65.6578L63.4178 65ZM75.8941 65.16C77.9741 65.16 78.7581 63.736 78.7581 63.72H78.7741V65H80.0541V57H78.7741V58.296H78.7581C78.7581 58.28 77.9741 56.84 75.8941 56.84C73.8141 56.84 72.0541 58.6 72.0541 61C72.0541 63.4 73.8141 65.16 75.8941 65.16ZM76.0541 63.96C74.5341 63.96 73.3341 62.76 73.3341 61C73.3341 59.24 74.5341 58.04 76.0541 58.04C77.5741 58.04 78.7741 59.24 78.7741 61C78.7741 62.76 77.5741 63.96 76.0541 63.96ZM82.2997 65H83.5797V58.2H87.8197V57H82.2997V65ZM92.7766 65.16C95.1766 65.16 96.9366 63.4 96.9366 61C96.9366 58.6 95.1766 56.84 92.7766 56.84C90.3766 56.84 88.6166 58.6 88.6166 61C88.6166 63.4 90.3766 65.16 92.7766 65.16ZM92.7766 63.96C91.0966 63.96 89.8966 62.76 89.8966 61C89.8966 59.24 91.0966 58.04 92.7766 58.04C94.4566 58.04 95.6566 59.24 95.6566 61C95.6566 62.76 94.4566 63.96 92.7766 63.96ZM100.45 65H101.73V58.2H104.53V57H97.6503V58.2H100.45V65ZM105.737 65H109.673C111.417 65 112.377 64.04 112.377 62.68C112.377 61.048 110.937 60.776 110.857 60.76V60.744C110.969 60.728 112.057 60.456 112.057 59C112.057 57.88 111.177 57 109.657 57H105.737V65ZM107.017 63.8V61.4H109.657C110.617 61.4 111.097 61.88 111.097 62.6C111.097 63.32 110.617 63.8 109.657 63.8H107.017ZM107.017 60.28V58.2H109.577C110.377 58.2 110.777 58.6 110.777 59.24C110.777 59.88 110.377 60.28 109.577 60.28H107.017ZM117.823 65.16C120.223 65.16 121.983 63.4 121.983 61C121.983 58.6 120.223 56.84 117.823 56.84C115.423 56.84 113.663 58.6 113.663 61C113.663 63.4 115.423 65.16 117.823 65.16ZM117.823 63.96C116.143 63.96 114.943 62.76 114.943 61C114.943 59.24 116.143 58.04 117.823 58.04C119.503 58.04 120.703 59.24 120.703 61C120.703 62.76 119.503 63.96 117.823 63.96ZM123.737 68.04H125.017V63.72H125.033C125.033 63.736 125.817 65.16 127.897 65.16C129.977 65.16 131.737 63.4 131.737 61C131.737 58.6 129.977 56.84 127.897 56.84C125.817 56.84 125.033 58.264 125.033 58.28H125.017V57H123.737V68.04ZM127.737 63.96C126.217 63.96 125.017 62.76 125.017 61C125.017 59.24 126.217 58.04 127.737 58.04C129.257 58.04 130.457 59.24 130.457 61C130.457 62.76 129.257 63.96 127.737 63.96ZM133.503 65H134.943L139.247 58.84H139.279L139.263 59V65H140.543V57H139.103L134.799 63.16H134.767L134.783 63V57H133.503V65ZM144.544 65H145.824V58.2H148.624V57H141.744V58.2H144.544V65ZM153.431 65.16C156.471 65.16 157.351 62.52 157.351 62.52H156.071C156.071 62.52 155.351 63.96 153.431 63.96C151.975 63.96 150.791 62.888 150.631 61.4H157.511V60.92C157.511 58.6 155.751 56.84 153.431 56.84C151.111 56.84 149.351 58.6 149.351 61C149.351 63.4 151.111 65.16 153.431 65.16ZM150.663 60.28C150.871 59.08 151.911 58.04 153.431 58.04C154.951 58.04 155.991 59.08 156.151 60.28H150.663ZM158.308 65H159.668L161.508 58.2H162.948L164.788 65H166.148L163.908 57H160.548L158.308 65ZM167.425 65H170.945C172.785 65 173.985 63.8 173.985 62.36C173.985 60.92 172.785 59.72 170.945 59.72H168.705V57H167.425V65ZM168.705 63.8V60.92H170.945C172.065 60.92 172.705 61.56 172.705 62.36C172.705 63.16 172.065 63.8 170.945 63.8H168.705ZM175.503 65H176.783V61.48H181.263V65H182.543V57H181.263V60.28H176.783V57H175.503V65ZM188.144 65.16C190.224 65.16 191.008 63.736 191.008 63.72H191.024V65H192.304V57H191.024V58.296H191.008C191.008 58.28 190.224 56.84 188.144 56.84C186.064 56.84 184.304 58.6 184.304 61C184.304 63.4 186.064 65.16 188.144 65.16ZM188.304 63.96C186.784 63.96 185.584 62.76 185.584 61C185.584 59.24 186.784 58.04 188.304 58.04C189.824 58.04 191.024 59.24 191.024 61C191.024 62.76 189.824 63.96 188.304 63.96ZM194.23 65H195.702L197.11 62.44H199.67V65H200.95V57H197.334C195.43 57 194.23 58.2 194.23 59.72C194.23 61.56 195.83 62.12 195.83 62.12L194.23 65ZM197.35 61.24C196.15 61.24 195.51 60.6 195.51 59.72C195.51 58.84 196.15 58.2 197.35 58.2H199.67V61.24H197.35ZM211.355 65.16C213.755 65.16 215.515 63.4 215.515 61C215.515 58.6 213.755 56.84 211.355 56.84C208.955 56.84 207.195 58.6 207.195 61C207.195 63.4 208.955 65.16 211.355 65.16ZM211.355 63.96C209.675 63.96 208.475 62.76 208.475 61C208.475 59.24 209.675 58.04 211.355 58.04C213.035 58.04 214.235 59.24 214.235 61C214.235 62.76 213.035 63.96 211.355 63.96ZM217.268 68.04H218.548V63.72H218.564C218.564 63.736 219.348 65.16 221.428 65.16C223.508 65.16 225.268 63.4 225.268 61C225.268 58.6 223.508 56.84 221.428 56.84C219.348 56.84 218.564 58.264 218.564 58.28H218.548V57H217.268V68.04ZM221.268 63.96C219.748 63.96 218.548 62.76 218.548 61C218.548 59.24 219.748 58.04 221.268 58.04C222.788 58.04 223.988 59.24 223.988 61C223.988 62.76 222.788 63.96 221.268 63.96ZM227.034 65H228.314V58.2H232.554V57H227.034V65ZM237.191 65.16C239.271 65.16 240.055 63.736 240.055 63.72H240.071V65H241.351V57H240.071V58.296H240.055C240.055 58.28 239.271 56.84 237.191 56.84C235.111 56.84 233.351 58.6 233.351 61C233.351 63.4 235.111 65.16 237.191 65.16ZM237.351 63.96C235.831 63.96 234.631 62.76 234.631 61C234.631 59.24 235.831 58.04 237.351 58.04C238.871 58.04 240.071 59.24 240.071 61C240.071 62.76 238.871 63.96 237.351 63.96ZM243.597 65H244.877V61.48H249.357V65H250.637V57H249.357V60.28H244.877V57H243.597V65ZM252.878 65H254.318L258.622 58.84H258.654L258.638 59V65H259.918V57H258.478L254.174 63.16H254.142L254.158 63V57H252.878V65ZM264.879 65.16C267.039 65.16 268.159 64.04 268.159 62.76C268.159 61.208 266.719 60.872 266.639 60.856V60.84C266.767 60.808 267.999 60.456 267.999 59.08C267.999 57.88 266.959 56.84 264.879 56.84C261.999 56.84 261.599 59.24 261.599 59.24H262.879C262.879 59.24 263.199 58.04 264.879 58.04C266.159 58.04 266.719 58.6 266.719 59.16C266.719 59.8 266.239 60.28 264.959 60.28H263.999V61.48H264.959C266.319 61.48 266.879 62.04 266.879 62.68C266.879 63.32 266.239 63.96 264.879 63.96C262.879 63.96 262.639 62.52 262.639 62.52H261.359C261.359 62.52 261.679 65.16 264.879 65.16ZM273.285 65.16C275.365 65.16 276.149 63.736 276.149 63.72H276.165V65H277.445V57H276.165V58.296H276.149C276.149 58.28 275.365 56.84 273.285 56.84C271.205 56.84 269.445 58.6 269.445 61C269.445 63.4 271.205 65.16 273.285 65.16ZM273.445 63.96C271.925 63.96 270.725 62.76 270.725 61C270.725 59.24 271.925 58.04 273.445 58.04C274.965 58.04 276.165 59.24 276.165 61C276.165 62.76 274.965 63.96 273.445 63.96ZM286.25 66.84H287.53V63.8H286.41V57H285.13V63.8H280.97V57H279.69V65H286.25V66.84ZM288.893 65H290.333L294.637 58.84H294.669L294.653 59V65H295.933V57H294.493L290.189 63.16H290.157L290.173 63V57H288.893V65ZM297.855 65H299.327L300.735 62.44H303.295V65H304.575V57H300.959C299.055 57 297.855 58.2 297.855 59.72C297.855 61.56 299.455 62.12 299.455 62.12L297.855 65ZM300.975 61.24C299.775 61.24 299.135 60.6 299.135 59.72C299.135 58.84 299.775 58.2 300.975 58.2H303.295V61.24H300.975Z" fill="#96949E"/>
</svg>
