<svg width="390" height="307" viewBox="0 0 390 307" fill="none" xmlns="http://www.w3.org/2000/svg">
<path d="M246.015 78.2275C246.589 79.1715 247.819 79.4718 248.763 78.8983C249.707 78.3247 250.007 77.0945 249.434 76.1505L246.015 78.2275ZM230.331 64.4242C229.23 64.3396 228.268 65.1637 228.183 66.265C228.099 67.3663 228.923 68.3278 230.024 68.4125L230.331 64.4242ZM162.174 288.22C161.531 289.118 161.737 290.367 162.635 291.011C163.533 291.654 164.783 291.447 165.426 290.549L162.174 288.22ZM185.59 211.26L183.611 211.548L183.611 211.549L185.59 211.26ZM142.557 180.05L143.355 181.884L143.356 181.884L142.557 180.05ZM126.158 195.256L127.741 194.033L127.74 194.032L126.158 195.256ZM153.353 186.772L154.16 188.601C155.169 188.156 155.627 186.98 155.185 185.97C154.743 184.96 153.568 184.498 152.557 184.937L153.353 186.772ZM129.473 202.376L127.479 202.522C127.489 202.655 127.512 202.787 127.548 202.916L129.473 202.376ZM155.529 195.651L156.554 197.368C157.456 196.829 157.788 195.686 157.314 194.748C156.84 193.811 155.722 193.4 154.754 193.807L155.529 195.651ZM134.818 211.644L136.633 210.805C136.618 210.772 136.602 210.74 136.585 210.708L134.818 211.644ZM160.591 205.732C161.481 205.077 161.672 203.826 161.017 202.936C160.363 202.046 159.111 201.855 158.221 202.509L160.591 205.732ZM83.7799 233.637C83.5644 232.554 82.5116 231.85 81.4282 232.066C80.3449 232.281 79.6412 233.334 79.8567 234.417L83.7799 233.637ZM102.581 240.789C103.329 239.976 103.277 238.711 102.464 237.963C101.651 237.215 100.386 237.267 99.638 238.08L102.581 240.789ZM92.02 175.76C91.11 175.134 89.8648 175.364 89.2387 176.274C88.6127 177.184 88.8428 178.43 89.7529 179.056L92.02 175.76ZM119.929 214.843L121.12 216.449C121.832 215.921 122.111 214.987 121.807 214.155L119.929 214.843ZM96.1796 229.972C95.2925 230.63 95.1069 231.883 95.765 232.77C96.4232 233.657 97.6758 233.842 98.5629 233.184L96.1796 229.972ZM52.3284 196.654C53.3541 197.063 54.5178 196.564 54.9277 195.538C55.3375 194.513 54.8383 193.349 53.8126 192.939L52.3284 196.654ZM24.0754 198.323L25.9066 199.127L25.9067 199.127L24.0754 198.323ZM27.0078 214.039L25.3384 215.14L25.3385 215.14L27.0078 214.039ZM68.5154 233.771C69.6037 233.582 70.3325 232.546 70.1433 231.458C69.9541 230.37 68.9185 229.641 67.8303 229.83L68.5154 233.771ZM43.7668 203.982C43.8289 202.879 42.9853 201.935 41.8824 201.872C40.7796 201.81 39.8352 202.654 39.7731 203.757L43.7668 203.982ZM47.6873 217.553C48.6704 218.057 49.8756 217.668 50.3793 216.685C50.8829 215.702 50.4943 214.497 49.5112 213.993L47.6873 217.553ZM55.0604 168.802C56.1275 169.088 57.2238 168.454 57.5091 167.387C57.7943 166.32 57.1606 165.223 56.0935 164.938L55.0604 168.802ZM12.9902 180.161L14.5146 181.455L14.5147 181.455L12.9902 180.161ZM11.0551 206.11L12.3464 207.637C12.7922 207.26 13.0511 206.708 13.0551 206.124C13.0591 205.54 12.8079 204.984 12.3674 204.601L11.0551 206.11ZM32.3141 251.028L33.4834 252.651C34.2416 252.105 34.5203 251.106 34.1546 250.246C33.7889 249.386 32.8762 248.894 31.9566 249.061L32.3141 251.028ZM15.2515 301.406L16.3667 299.746L16.3666 299.746L15.2515 301.406ZM56.0798 287.57C56.808 286.739 56.7249 285.475 55.8943 284.747C55.0637 284.019 53.8001 284.102 53.0719 284.933L56.0798 287.57ZM79.3472 194.386C79.1922 193.292 78.18 192.531 77.0863 192.686C75.9927 192.841 75.2317 193.853 75.3867 194.947L79.3472 194.386ZM76.8102 204.992C76.9652 206.085 77.9774 206.846 79.071 206.691C80.1647 206.536 80.9256 205.524 80.7706 204.43L76.8102 204.992ZM45.211 252.141C44.3409 252.821 44.187 254.078 44.8674 254.948C45.5478 255.819 46.8048 255.972 47.6749 255.292L45.211 252.141ZM85.2415 251.993L84.1539 253.672L84.1542 253.672L85.2415 251.993ZM106.165 301.001C106.345 302.091 107.374 302.828 108.464 302.648C109.554 302.468 110.291 301.439 110.111 300.349L106.165 301.001ZM239.934 47.6611L238.917 45.9394C238.215 46.3541 237.835 47.153 237.957 47.9589C238.078 48.7647 238.676 49.4164 239.469 49.6061L239.934 47.6611ZM335.394 59.1595L335.384 61.1595C335.923 61.162 336.441 60.9468 336.819 60.5627C337.197 60.1785 337.404 59.6579 337.393 59.1189L335.394 59.1595ZM299.852 13.7832L299.129 11.9187L299.129 11.9187L299.852 13.7832ZM283.871 36.4523L283.785 38.4505C284.745 38.4915 285.598 37.8445 285.818 36.9095L283.871 36.4523ZM309.188 62.4982C308.638 61.5401 307.416 61.2087 306.458 61.7582C305.5 62.3077 305.168 63.5299 305.718 64.4881L309.188 62.4982ZM325.176 73.5163L326.531 74.9872C327.142 74.4241 327.341 73.5415 327.031 72.7703C326.721 71.9991 325.966 71.5 325.135 71.5167L325.176 73.5163ZM321.505 82.8877L319.512 83.048C319.512 83.0587 319.513 83.0694 319.514 83.0801L321.505 82.8877ZM325.688 93.1556C326.619 93.75 327.855 93.4772 328.45 92.5462C329.044 91.6152 328.771 90.3786 327.84 89.7842L325.688 93.1556ZM301.942 99.5053C301.277 98.6239 300.022 98.4492 299.141 99.1149C298.26 99.7807 298.085 101.035 298.751 101.916L301.942 99.5053ZM301.364 110.012L303.159 110.892C303.167 110.876 303.175 110.86 303.182 110.844L301.364 110.012ZM293.432 113.127C292.328 113.172 291.47 114.103 291.515 115.207C291.56 116.311 292.491 117.169 293.595 117.124L293.432 113.127ZM274.526 56.1536C275.085 55.2005 274.765 53.9753 273.812 53.4169C272.859 52.8586 271.633 53.1785 271.075 54.1316L274.526 56.1536ZM262.221 102.208L260.229 102.383C260.307 103.265 260.955 103.991 261.823 104.168L262.221 102.208ZM289.877 109.873C290.959 110.094 292.015 109.395 292.235 108.312C292.455 107.23 291.756 106.174 290.674 105.954L289.877 109.873ZM288.402 65.0963C288.077 64.0404 286.958 63.4473 285.903 63.7715C284.847 64.0958 284.254 65.2147 284.578 66.2706L288.402 65.0963ZM287.242 74.945C287.566 76.0009 288.685 76.594 289.741 76.2698C290.797 75.9455 291.39 74.8267 291.065 73.7708L287.242 74.945ZM334.991 57.3507C334.036 57.9057 333.712 59.1298 334.267 60.0849C334.822 61.0399 336.046 61.3641 337.001 60.8091L334.991 57.3507ZM361.359 82.1655L359.546 81.3213C359.16 82.15 359.385 83.1347 360.093 83.7134C360.8 84.2922 361.81 84.3177 362.546 83.7754L361.359 82.1655ZM355.903 117.041C354.835 116.758 353.74 117.394 353.458 118.462C353.175 119.53 353.811 120.625 354.879 120.907L355.903 117.041ZM344.892 29.8358C343.817 30.0903 343.152 31.168 343.406 32.2428C343.661 33.3177 344.739 33.9827 345.813 33.7281L344.892 29.8358ZM357.539 30.9512C358.614 30.6967 359.279 29.619 359.024 28.5441C358.77 27.4693 357.692 26.8043 356.617 27.0589L357.539 30.9512ZM351.97 17.6078C352.949 17.0974 353.33 15.8896 352.819 14.91C352.309 13.9304 351.101 13.55 350.122 14.0604L351.97 17.6078ZM340.111 19.2756C339.132 19.786 338.751 20.9938 339.262 21.9734C339.772 22.953 340.98 23.3334 341.96 22.823L340.111 19.2756ZM332.113 10.0825C331.286 10.8146 331.209 12.0786 331.941 12.9057C332.673 13.7329 333.937 13.81 334.764 13.0779L332.113 10.0825ZM344.6 4.37269C345.427 3.64064 345.504 2.37666 344.772 1.54951C344.04 0.722358 342.776 0.645262 341.949 1.37731L344.6 4.37269ZM129.696 142.287C129.76 141.184 128.918 140.238 127.816 140.174C126.713 140.11 125.767 140.952 125.703 142.055L129.696 142.287ZM130.289 163.578L132.087 162.702L132.087 162.702L130.289 163.578ZM142.811 168.312L141.954 166.505L141.954 166.505L142.811 168.312ZM149.267 157.413L151.226 157.815L151.226 157.814L149.267 157.413ZM152.748 133.3C152.662 132.199 151.699 131.376 150.598 131.462C149.497 131.549 148.674 132.511 148.76 133.612L152.748 133.3ZM128.207 152.667C127.112 152.809 126.339 153.812 126.481 154.907C126.623 156.003 127.627 156.775 128.722 156.633L128.207 152.667ZM150.269 153.837C151.365 153.694 152.137 152.691 151.995 151.596C151.853 150.5 150.85 149.728 149.754 149.87L150.269 153.837ZM140.745 169.413C140.606 168.317 139.604 167.542 138.509 167.682C137.413 167.821 136.638 168.823 136.777 169.918L140.745 169.413ZM138.246 181.444C138.386 182.54 139.387 183.315 140.483 183.175C141.579 183.035 142.354 182.034 142.214 180.938L138.246 181.444ZM165.653 52.5631C165.65 53.6677 166.543 54.5656 167.647 54.5686C168.752 54.5716 169.65 53.6787 169.653 52.5741L165.653 52.5631ZM147.839 40.9977L148.823 42.7389L148.825 42.738L147.839 40.9977ZM147.981 55.2513L147.828 57.2454L147.829 57.2456L147.981 55.2513ZM154.901 44.8463L152.918 45.1076L152.918 45.1088L154.901 44.8463ZM127.896 29.5358C126.916 30.046 126.536 31.2537 127.046 32.2334C127.556 33.2131 128.764 33.5937 129.744 33.0835L127.896 29.5358ZM201.15 56.3493C201.182 57.4534 202.103 58.3229 203.207 58.2912C204.311 58.2596 205.18 57.3389 205.149 56.2348L201.15 56.3493ZM192.412 30.3428L193.669 28.7869L193.668 28.786L192.412 30.3428ZM180.703 28.701L179.635 27.0097L179.635 27.0097L180.703 28.701ZM177 39.6509L178.959 39.251L178.959 39.2506L177 39.6509ZM199.613 62.9536L199.201 64.9107C200.083 65.0962 200.979 64.6699 201.391 63.8693C201.804 63.0687 201.63 62.0913 200.967 61.4816L199.613 62.9536ZM164.445 74.4701L162.488 74.0583L162.488 74.059L164.445 74.4701ZM202.502 66.4889L204.502 66.5155C204.516 65.4526 203.696 64.5644 202.636 64.4934C201.575 64.4224 200.644 65.1936 200.517 66.2489L202.502 66.4889ZM208.256 94.3063L206.529 95.3141L206.532 95.3197L208.256 94.3063ZM220.535 101.238L219.791 99.381L219.791 99.3812L220.535 101.238ZM223.812 86.278L225.703 85.6282L225.702 85.6255L223.812 86.278ZM207.309 61.4313L206.798 59.4976C206.088 59.6855 205.537 60.2483 205.365 60.9632C205.193 61.678 205.427 62.4297 205.975 62.9205L207.309 61.4313ZM225.224 32.3287L226.111 30.5359L226.111 30.5358L225.224 32.3287ZM208.305 37.3972L209.973 38.5016L209.973 38.501L208.305 37.3972ZM201.157 56.4924C201.266 57.5916 202.245 58.3946 203.344 58.286C204.444 58.1773 205.247 57.1982 205.138 56.099L201.157 56.4924ZM212.278 156.212C211.777 155.228 210.572 154.837 209.588 155.338C208.604 155.839 208.212 157.044 208.714 158.028L212.278 156.212ZM226.275 182.841C227.036 183.641 228.302 183.672 229.102 182.911C229.902 182.149 229.934 180.883 229.172 180.083L226.275 182.841ZM204.058 80.1629C204.354 79.0987 203.731 77.9962 202.666 77.7006C201.602 77.4049 200.5 78.028 200.204 79.0923L204.058 80.1629ZM198.328 127.51C198.53 128.596 199.575 129.312 200.661 129.11C201.746 128.907 202.463 127.863 202.26 126.777L198.328 127.51ZM199.327 123.74L199.059 125.722C199.86 125.83 200.648 125.446 201.055 124.747C201.462 124.049 201.409 123.174 200.92 122.53L199.327 123.74ZM135.215 89.9093L135.315 87.9118C134.491 87.8706 133.726 88.3396 133.389 89.0927C133.052 89.8459 133.212 90.7286 133.792 91.3153L135.215 89.9093ZM205.956 140.151L204.787 141.775L204.787 141.775L205.956 140.151ZM215.346 146.469L214.697 148.361C215.643 148.685 216.683 148.261 217.132 147.368C217.582 146.475 217.303 145.387 216.479 144.821L215.346 146.469ZM192.562 136.113L191.148 134.699C191.121 134.726 191.094 134.754 191.069 134.782L192.562 136.113ZM293.569 175.006C294.621 174.667 295.198 173.54 294.859 172.489C294.52 171.437 293.393 170.86 292.342 171.199L293.569 175.006ZM302.856 136.499C303.857 136.03 304.287 134.84 303.819 133.839C303.35 132.839 302.159 132.408 301.159 132.877L302.856 136.499ZM207.052 123.943L208.859 124.8C208.873 124.772 208.885 124.744 208.897 124.715L207.052 123.943ZM224.193 138.708L223.501 140.585C224.479 140.945 225.57 140.495 226.008 139.549C226.446 138.603 226.084 137.48 225.177 136.967L224.193 138.708ZM198.313 129.134L199.941 130.297C199.99 130.228 200.035 130.155 200.076 130.08L198.313 129.134ZM219.141 207.502C218.072 207.781 217.431 208.873 217.71 209.942C217.988 211.011 219.08 211.652 220.149 211.373L219.141 207.502ZM245.173 213.586L246.264 211.91L246.264 211.91L245.173 213.586ZM236.58 243.414L237.809 241.837L237.808 241.836L236.58 243.414ZM235.369 238.674L234.019 237.198L234.014 237.203L235.369 238.674ZM239.071 238.674L239.926 236.866L239.922 236.864L239.071 238.674ZM231.512 265.23C230.414 265.345 229.616 266.328 229.731 267.427C229.846 268.526 230.829 269.323 231.928 269.208L231.512 265.23ZM97.3932 154.198C98.4902 154.327 99.4842 153.542 99.6133 152.445C99.7424 151.348 98.9578 150.354 97.8608 150.225L97.3932 154.198ZM82.4647 148.413C81.3677 148.284 80.3737 149.069 80.2446 150.166C80.1155 151.263 80.9001 152.257 81.9971 152.386L82.4647 148.413ZM106.315 138.797C107.231 139.413 108.474 139.17 109.091 138.254C109.707 137.337 109.464 136.095 108.548 135.478L106.315 138.797ZM87.6122 121.391C86.6958 120.774 85.453 121.017 84.8364 121.934C84.2197 122.85 84.4628 124.093 85.3792 124.709L87.6122 121.391ZM109.729 108.768C109.123 107.845 107.883 107.588 106.96 108.194C106.036 108.8 105.779 110.04 106.385 110.963L109.729 108.768ZM115.797 125.298C116.403 126.222 117.643 126.479 118.567 125.873C119.49 125.266 119.747 124.027 119.141 123.103L115.797 125.298ZM249.434 76.1505C245.401 69.5136 238.083 65.0202 230.331 64.4242L230.024 68.4125C236.493 68.9098 242.652 72.6927 246.015 78.2275L249.434 76.1505ZM165.426 290.549C172.245 281.029 178.599 266.921 182.837 252.389C187.07 237.881 189.275 222.673 187.569 210.971L183.611 211.549C185.198 222.433 183.159 237.004 178.998 251.269C174.843 265.512 168.655 279.173 162.174 288.22L165.426 290.549ZM187.569 210.972C185.991 200.14 182.08 188.756 173.503 181.19L170.857 184.19C178.405 190.848 182.092 201.125 183.611 211.548L187.569 210.972ZM173.503 181.19C164.683 173.409 153.523 173.092 141.759 178.217L143.356 181.884C154.18 177.168 163.552 177.745 170.857 184.19L173.503 181.19ZM141.759 178.216C139.678 179.122 134.61 181.931 130.458 185.074C128.395 186.635 126.411 188.388 125.153 190.13C124.525 190.999 123.98 191.998 123.782 193.074C123.57 194.225 123.768 195.435 124.577 196.48L127.74 194.032C127.717 194.002 127.682 193.982 127.716 193.799C127.764 193.539 127.943 193.098 128.396 192.471C129.299 191.221 130.901 189.755 132.872 188.263C136.789 185.298 141.585 182.655 143.355 181.884L141.759 178.216ZM124.576 196.479C125.296 197.411 126.343 197.768 127.2 197.904C128.076 198.041 129.037 197.995 129.972 197.87C131.85 197.619 134.056 196.985 136.16 196.264C140.393 194.813 144.642 192.856 145.842 192.323L144.216 188.668C142.959 189.227 138.892 191.099 134.864 192.48C132.838 193.174 130.927 193.707 129.441 193.906C128.693 194.006 128.161 194.005 127.823 193.952C127.467 193.896 127.58 193.826 127.741 194.033L124.576 196.479ZM145.842 192.323C148.344 191.209 151.302 189.841 154.149 188.607L152.557 184.937C149.702 186.175 146.629 187.594 144.216 188.668L145.842 192.323ZM152.545 184.942C149.411 186.325 143.206 188.85 137.892 191.733C135.237 193.173 132.687 194.763 130.803 196.42C129.859 197.249 129.015 198.153 128.414 199.127C127.81 200.103 127.386 201.258 127.479 202.522L131.468 202.229C131.456 202.062 131.498 201.745 131.816 201.23C132.137 200.711 132.67 200.104 133.444 199.424C134.993 198.061 137.235 196.64 139.799 195.249C144.923 192.469 150.868 190.055 154.16 188.601L152.545 184.942ZM127.548 202.916C127.936 204.3 128.775 205.358 129.979 205.992C131.108 206.587 132.396 206.726 133.616 206.668C136.033 206.553 138.92 205.618 141.705 204.482C144.537 203.326 147.48 201.871 150.057 200.566C152.69 199.233 154.859 198.101 156.304 197.495L154.754 193.807C153.138 194.486 150.767 195.723 148.251 196.997C145.679 198.299 142.862 199.69 140.194 200.778C137.478 201.886 135.123 202.592 133.425 202.673C132.588 202.712 132.1 202.589 131.844 202.453C131.663 202.358 131.507 202.219 131.399 201.835L127.548 202.916ZM154.504 193.934C153.313 194.644 151.305 195.638 148.848 196.888C146.442 198.112 143.69 199.54 141.174 201.054C138.69 202.548 136.288 204.213 134.678 205.94C133.164 207.563 131.688 210.009 133.05 212.58L136.585 210.708C136.524 210.593 136.292 210.074 137.603 208.668C138.817 207.366 140.821 205.935 143.237 204.481C145.621 203.047 148.263 201.673 150.661 200.454C153.007 199.26 155.211 198.17 156.554 197.368L154.504 193.934ZM133.002 212.483C134.168 215.005 136.85 215.44 139.023 215.299C141.308 215.151 143.998 214.349 146.626 213.313C151.914 211.228 157.598 207.933 160.591 205.732L158.221 202.509C155.503 204.508 150.122 207.635 145.159 209.592C142.661 210.576 140.429 211.2 138.765 211.308C136.99 211.422 136.697 210.943 136.633 210.805L133.002 212.483ZM79.8567 234.417C80.8071 239.197 84.5689 243.255 89.2566 244.571L90.3381 240.72C87.0975 239.81 84.4361 236.938 83.7799 233.637L79.8567 234.417ZM89.2566 244.571C93.9459 245.888 99.2824 244.373 102.581 240.789L99.638 238.08C97.3586 240.556 93.5773 241.63 90.3381 240.72L89.2566 244.571ZM89.7529 179.056C102.745 187.994 112.633 200.74 118.051 215.531L121.807 214.155C116.103 198.584 105.694 185.168 92.02 175.76L89.7529 179.056ZM118.737 213.237L96.1796 229.972L98.5629 233.184L121.12 216.449L118.737 213.237ZM53.8126 192.939C48.8452 190.954 43.2996 188.745 37.4306 188.769L37.4466 192.769C42.411 192.749 47.2384 194.62 52.3284 196.654L53.8126 192.939ZM37.4306 188.769C31.5416 188.792 24.8471 191.589 22.2441 197.519L25.9067 199.127C27.6523 195.15 32.5021 192.788 37.4466 192.769L37.4306 188.769ZM22.2441 197.519C19.5839 203.577 22.1703 210.339 25.3384 215.14L28.6772 212.937C25.7159 208.449 24.0949 203.253 25.9066 199.127L22.2441 197.519ZM25.3385 215.14C34.4817 228.996 52.1462 236.617 68.5154 233.771L67.8303 229.83C53.0264 232.404 36.9428 225.463 28.6771 212.937L25.3385 215.14ZM39.7731 203.757C39.4565 209.375 42.6734 214.984 47.6873 217.553L49.5112 213.993C45.904 212.145 43.5393 208.019 43.7668 203.982L39.7731 203.757ZM56.0935 164.938C40.1876 160.686 22.1143 166.326 11.4656 178.866L14.5147 181.455C24.162 170.094 40.6456 164.949 55.0604 168.802L56.0935 164.938ZM11.4657 178.866C8.20524 182.705 5.44167 187.394 4.69715 192.674L8.65797 193.233C9.25903 188.97 11.5332 184.966 14.5146 181.455L11.4657 178.866ZM4.69715 192.674C3.95303 197.952 5.47789 203.911 9.74293 207.619L12.3674 204.601C9.35324 201.98 8.05652 197.498 8.65797 193.233L4.69715 192.674ZM9.76388 204.583C0.492776 212.421 -2.58542 226.6 2.60472 237.569L6.22035 235.858C1.80652 226.53 4.45874 214.306 12.3464 207.637L9.76388 204.583ZM2.60472 237.569C7.79448 248.536 20.721 255.167 32.6715 252.996L31.9566 249.061C21.7832 250.908 10.6346 245.186 6.22035 235.858L2.60472 237.569ZM31.1448 249.406C22.6896 255.499 13.4309 262.27 8.47137 272.158L12.0468 273.952C16.4954 265.082 24.8922 258.842 33.4834 252.651L31.1448 249.406ZM8.47137 272.158C5.93843 277.208 4.93781 283.244 5.74342 288.837C6.55042 294.44 9.20231 299.752 14.1363 303.066L16.3666 299.746C12.5852 297.206 10.3889 293.032 9.70256 288.267C9.01482 283.492 9.87571 278.28 12.0468 273.952L8.47137 272.158ZM14.1362 303.066C21.3395 307.906 30.9552 306.916 38.2168 303.185L36.3889 299.627C29.9301 302.945 21.9626 303.505 16.3667 299.746L14.1362 303.066ZM38.2168 303.185C45.4609 299.463 51.0217 293.34 56.0798 287.57L53.0719 284.933C47.9712 290.752 42.8653 296.3 36.3889 299.627L38.2168 303.185ZM75.3867 194.947L76.8102 204.992L80.7706 204.43L79.3472 194.386L75.3867 194.947ZM47.6749 255.292C57.8835 247.309 73.2821 246.627 84.1539 253.672L86.3291 250.315C74.0251 242.342 56.7636 243.107 45.211 252.141L47.6749 255.292ZM84.1542 253.672C91.4596 258.404 96.6179 266.099 99.8804 274.467L103.607 273.014C100.153 264.153 94.5609 255.647 86.3288 250.315L84.1542 253.672ZM99.8804 274.467C103.151 282.855 104.652 291.845 106.165 301.001L110.111 300.349C108.61 291.262 107.054 281.856 103.607 273.014L99.8804 274.467ZM239.469 49.6061C270.889 57.1285 303.074 61.0053 335.384 61.1595L335.403 57.1595C303.4 57.0068 271.521 53.1669 240.4 45.7161L239.469 49.6061ZM337.393 59.1189C337.164 47.8047 336.41 35.4588 330.313 25.201L326.874 27.2449C332.372 36.4939 333.164 47.8398 333.394 59.2001L337.393 59.1189ZM330.313 25.201C327.212 19.9838 322.372 15.5695 316.867 12.9932C311.355 10.4133 305.043 9.62338 299.129 11.9187L300.576 15.6477C305.25 13.8339 310.41 14.3871 315.172 16.616C319.942 18.8486 324.178 22.7087 326.874 27.2449L330.313 25.201ZM299.129 11.9187C289.177 15.7808 284.159 26.4714 281.923 35.9952L285.818 36.9095C287.981 27.6941 292.56 18.7585 300.576 15.6477L299.129 11.9187ZM283.956 34.4542C265.399 33.6614 253.733 37.181 238.917 45.9394L240.952 49.3828C255.166 40.9805 266.073 37.6938 283.785 38.4505L283.956 34.4542ZM305.718 64.4881C309.622 71.2958 317.363 75.6735 325.216 75.5159L325.135 71.5167C318.742 71.645 312.364 68.0361 309.188 62.4982L305.718 64.4881ZM323.82 72.0453C322.314 73.4329 321.143 75.1445 320.397 77.0507L324.121 78.5094C324.646 77.1686 325.47 75.9641 326.531 74.9872L323.82 72.0453ZM320.397 77.0507C319.65 78.9569 319.347 81.0077 319.512 83.048L323.499 82.7274C323.383 81.2926 323.596 79.8503 324.121 78.5094L320.397 77.0507ZM319.514 83.0801C319.711 85.1173 320.37 87.0829 321.439 88.8283L324.85 86.7384C324.097 85.5103 323.634 84.1278 323.496 82.6953L319.514 83.0801ZM321.439 88.8283C322.509 90.5738 323.962 92.0534 325.688 93.1556L327.84 89.7842C326.625 89.0081 325.602 87.9665 324.85 86.7384L321.439 88.8283ZM298.751 101.916C299.527 102.944 300.01 104.161 300.15 105.439L304.126 105.004C303.908 103.008 303.153 101.108 301.942 99.5053L298.751 101.916ZM300.15 105.439C300.289 106.717 300.081 108.009 299.545 109.179L303.182 110.844C304.018 109.018 304.344 107 304.126 105.004L300.15 105.439ZM299.568 109.131C299.001 110.286 298.132 111.268 297.052 111.971L299.235 115.323C300.919 114.226 302.275 112.696 303.159 110.892L299.568 109.131ZM297.052 111.971C295.972 112.675 294.721 113.074 293.432 113.127L293.595 117.124C295.603 117.042 297.552 116.42 299.235 115.323L297.052 111.971ZM271.075 54.1316C262.537 68.7044 258.747 85.5658 260.229 102.383L264.213 102.032C262.805 86.0423 266.408 70.0102 274.526 56.1536L271.075 54.1316ZM261.823 104.168L289.877 109.873L290.674 105.954L262.62 100.248L261.823 104.168ZM284.578 66.2706L287.242 74.945L291.065 73.7708L288.402 65.0963L284.578 66.2706ZM337.001 60.8091C342.81 57.4332 350.855 58.2884 355.82 62.8089L358.513 59.8511C352.256 54.1549 342.308 53.0984 334.991 57.3507L337.001 60.8091ZM355.82 62.8089C360.785 67.3291 362.377 75.2403 359.546 81.3213L363.172 83.0096C366.743 75.3403 364.77 65.5477 358.513 59.8511L355.82 62.8089ZM362.546 83.7754C365.706 81.4459 369.896 80.8674 373.93 81.8314C377.968 82.7962 381.632 85.2595 383.7 88.7034L387.129 86.6442C384.435 82.1577 379.797 79.1207 374.86 77.9409C369.92 76.7603 364.463 77.3929 360.172 80.5555L362.546 83.7754ZM383.7 88.7034C387.915 95.7232 386.025 105.74 379.921 111.593L382.689 114.48C389.946 107.521 392.438 95.4854 387.129 86.6442L383.7 88.7034ZM379.921 111.593C373.828 117.436 364.304 119.265 355.903 117.041L354.879 120.907C364.387 123.425 375.421 121.45 382.689 114.48L379.921 111.593ZM345.813 33.7281L357.539 30.9512L356.617 27.0589L344.892 29.8358L345.813 33.7281ZM350.122 14.0604L340.111 19.2756L341.96 22.823L351.97 17.6078L350.122 14.0604ZM334.764 13.0779L344.6 4.37269L341.949 1.37731L332.113 10.0825L334.764 13.0779ZM125.703 142.055C125.554 144.626 125.674 148.99 126.096 153.252C126.307 155.391 126.599 157.542 126.981 159.457C127.356 161.339 127.842 163.123 128.491 164.454L132.087 162.702C131.666 161.838 131.259 160.456 130.903 158.675C130.555 156.926 130.28 154.912 130.076 152.858C129.668 148.732 129.563 144.588 129.696 142.287L125.703 142.055ZM128.491 164.454C130.185 167.93 132.598 170.087 135.435 170.956C138.232 171.813 141.133 171.322 143.668 170.119L141.954 166.505C140.072 167.398 138.214 167.624 136.606 167.131C135.037 166.651 133.399 165.394 132.087 162.702L128.491 164.454ZM143.668 170.119C146.168 168.933 147.835 166.888 148.972 164.685C150.103 162.494 150.771 160.033 151.226 157.815L147.308 157.01C146.882 159.086 146.303 161.134 145.418 162.85C144.539 164.553 143.419 165.81 141.954 166.505L143.668 170.119ZM151.226 157.814C152.878 149.754 153.39 141.502 152.748 133.3L148.76 133.612C149.373 141.441 148.884 149.318 147.308 157.011L151.226 157.814ZM128.722 156.633L150.269 153.837L149.754 149.87L128.207 152.667L128.722 156.633ZM136.777 169.918L138.246 181.444L142.214 180.938L140.745 169.413L136.777 169.918ZM169.653 52.5741C169.667 47.2458 166.692 42.0515 162.085 39.3628L160.069 42.8174C163.445 44.7881 165.663 48.663 165.653 52.5631L169.653 52.5741ZM162.085 39.3628C157.48 36.6748 151.489 36.6323 146.854 39.2574L148.825 42.738C152.219 40.8159 156.691 40.8459 160.069 42.8174L162.085 39.3628ZM146.855 39.2566C143.688 41.0466 140.884 44.3527 140.643 48.3931L144.636 48.6307C144.773 46.3318 146.456 44.0769 148.823 42.7389L146.855 39.2566ZM140.643 48.3931C140.518 50.4961 141.234 52.5872 142.465 54.1949C143.699 55.8071 145.566 57.072 147.828 57.2454L148.133 53.2571C147.231 53.188 146.333 52.6681 145.641 51.7636C144.945 50.8547 144.573 49.6974 144.636 48.6307L140.643 48.3931ZM147.829 57.2456C151.163 57.4984 154.119 55.383 155.584 52.7975L152.103 50.8263C151.214 52.397 149.571 53.3662 148.132 53.257L147.829 57.2456ZM155.584 52.7975C157.051 50.2059 157.23 47.2003 156.883 44.5838L152.918 45.1088C153.199 47.2313 152.989 49.2617 152.103 50.8263L155.584 52.7975ZM156.884 44.5849C156.049 38.2536 151.987 32.4687 146.314 29.5237L144.471 33.0738C148.987 35.4182 152.254 40.0745 152.918 45.1076L156.884 44.5849ZM146.314 29.5237C140.642 26.5786 133.566 26.5827 127.896 29.5358L129.744 33.0835C134.258 30.7326 139.956 30.7294 144.471 33.0738L146.314 29.5237ZM205.149 56.2348C204.835 45.288 200.333 34.1686 193.669 28.7869L191.156 31.8988C196.627 36.3175 200.858 46.1494 201.15 56.3493L205.149 56.2348ZM193.668 28.786C191.837 27.3097 189.467 26.2061 187.028 25.7788C184.592 25.3521 181.909 25.575 179.635 27.0097L181.77 30.3923C182.973 29.6331 184.573 29.4098 186.337 29.7188C188.098 30.0274 189.845 30.8417 191.157 31.8997L193.668 28.786ZM179.635 27.0097C178.131 27.9591 176.717 29.8001 175.817 31.9908C174.894 34.2351 174.426 37.0438 175.04 40.0511L178.959 39.2506C178.525 37.126 178.853 35.1259 179.516 33.5113C180.202 31.8432 181.164 30.7752 181.77 30.3923L179.635 27.0097ZM175.04 40.0507C176.307 46.2603 180.725 50.8934 185.332 54.63C187.652 56.5111 190.116 58.2392 192.356 59.8412C194.631 61.4679 196.659 62.9533 198.259 64.4255L200.967 61.4816C199.159 59.8185 196.937 58.1988 194.683 56.5875C192.395 54.9515 190.053 53.3088 187.852 51.5233C183.418 47.9268 179.937 44.0439 178.959 39.251L175.04 40.0507ZM200.025 60.9965C193.316 59.5843 185.945 58.1849 178.734 59.6581L179.534 63.5772C185.826 62.2917 192.425 63.4844 199.201 64.9107L200.025 60.9965ZM178.734 59.6581C171.502 61.1356 164.125 66.2771 162.488 74.0583L166.402 74.8819C167.601 69.1843 173.263 64.8584 179.534 63.5772L178.734 59.6581ZM162.488 74.059C160.762 82.2765 166.474 90.7248 174.158 93.3396L175.446 89.5528C169.395 87.4936 165.151 80.8411 166.402 74.8812L162.488 74.059ZM174.158 93.3396C181.861 95.9612 190.613 93.1913 196.199 87.6386L193.38 84.8017C188.684 89.4693 181.477 91.6051 175.446 89.5528L174.158 93.3396ZM196.199 87.6386C201.792 82.0797 204.4 74.1544 204.502 66.5155L200.502 66.4624C200.411 73.3051 198.069 80.1401 193.38 84.8017L196.199 87.6386ZM200.517 66.2489C199.297 76.3325 201.408 86.5377 206.529 95.3141L209.984 93.2984C205.303 85.2751 203.373 75.9463 204.488 66.729L200.517 66.2489ZM206.532 95.3197C207.943 97.7211 210.015 100.188 212.481 101.817C214.961 103.454 218.08 104.377 221.279 103.094L219.791 99.3812C218.222 100.01 216.502 99.6788 214.685 98.4788C212.854 97.2698 211.169 95.3156 209.98 93.2928L206.532 95.3197ZM221.279 103.094C224.817 101.676 226.367 98.4638 226.815 95.249C227.261 92.0518 226.695 88.5148 225.703 85.6282L221.92 86.9278C222.766 89.3886 223.191 92.2778 222.853 94.6967C222.519 97.0981 221.512 98.6916 219.791 99.381L221.279 103.094ZM225.702 85.6255C222.296 75.7557 216.425 66.9163 208.644 59.942L205.975 62.9205C213.249 69.441 218.737 77.7046 221.921 86.9305L225.702 85.6255ZM207.82 63.3649C214.94 61.4835 223.279 59.1769 228.596 52.9556L225.556 50.3567C221.178 55.4781 214.132 57.5595 206.798 59.4976L207.82 63.3649ZM228.596 52.9556C231.385 49.6923 232.737 45.1659 232.476 40.9833C232.214 36.7883 230.284 32.5995 226.111 30.5359L224.338 34.1214C226.864 35.3705 228.283 38.0098 228.484 41.2325C228.686 44.4676 227.614 47.9487 225.556 50.3567L228.596 52.9556ZM226.111 30.5358C219.246 27.1424 211.132 29.5017 206.637 36.2934L209.973 38.501C213.443 33.2585 219.419 31.6896 224.338 34.1215L226.111 30.5358ZM206.638 36.2928C202.812 42.0688 200.458 49.4126 201.157 56.4924L205.138 56.099C204.547 50.1164 206.544 43.6774 209.973 38.5016L206.638 36.2928ZM208.714 158.028C213.336 167.102 219.251 175.46 226.275 182.841L229.172 180.083C222.415 172.983 216.725 164.942 212.278 156.212L208.714 158.028ZM200.204 79.0923C195.83 94.8362 195.343 111.499 198.328 127.51L202.26 126.777C199.38 111.327 199.858 95.2829 204.058 80.1629L200.204 79.0923ZM200.92 122.53C185.486 102.21 160.828 89.1885 135.315 87.9118L135.115 91.9068C159.449 93.1245 183.014 105.569 197.734 124.95L200.92 122.53ZM133.792 91.3153C150.883 108.605 174.763 122.436 199.059 125.722L199.595 121.758C176.35 118.614 153.244 105.304 136.637 88.5033L133.792 91.3153ZM204.787 141.775C208.061 144.132 211.868 146.505 214.213 148.117L216.479 144.821C213.826 142.997 210.433 140.91 207.124 138.528L204.787 141.775ZM215.995 144.577C214.834 144.179 213.123 143.192 210.98 141.824C208.955 140.531 206.51 138.876 204.256 137.478C201.981 136.067 199.621 134.737 197.531 134.013C195.632 133.355 192.983 132.864 191.148 134.699L193.976 137.527C193.983 137.52 194.392 137.159 196.222 137.792C197.861 138.36 199.899 139.483 202.148 140.878C204.419 142.285 206.623 143.788 208.828 145.195C210.914 146.527 213.013 147.783 214.697 148.361L215.995 144.577ZM191.069 134.782C190.205 135.751 189.95 136.953 190.041 138.098C190.13 139.204 190.539 140.339 191.108 141.437C192.246 143.638 194.262 146.149 196.899 148.764C202.2 154.022 210.37 160.056 220.307 165.311C240.14 175.798 267.489 183.417 293.569 175.006L292.342 171.199C267.7 179.146 241.523 172.004 222.176 161.774C212.523 156.67 204.689 150.857 199.716 145.924C197.215 143.443 195.526 141.272 194.66 139.599C194.226 138.759 194.059 138.159 194.029 137.78C194.014 137.602 194.033 137.507 194.043 137.471C194.048 137.454 194.052 137.447 194.052 137.447C194.053 137.447 194.053 137.446 194.053 137.446C194.053 137.446 194.053 137.446 194.055 137.444L191.069 134.782ZM301.159 132.877C279.538 143.009 257.548 137.956 240.089 131.399C235.736 129.764 231.688 128.045 228.008 126.456C224.35 124.876 221.009 123.405 218.155 122.307C215.343 121.226 212.769 120.412 210.679 120.277C209.616 120.208 208.51 120.301 207.512 120.759C206.452 121.245 205.666 122.074 205.208 123.17L208.897 124.715C208.984 124.508 209.068 124.446 209.18 124.394C209.355 124.314 209.725 124.223 210.421 124.268C211.847 124.361 213.921 124.965 216.719 126.041C219.476 127.1 222.71 128.525 226.423 130.128C230.114 131.722 234.235 133.473 238.682 135.143C256.423 141.806 279.729 147.337 302.856 136.499L301.159 132.877ZM205.245 123.085C204.752 124.125 204.851 125.188 205.149 126.062C205.44 126.913 205.958 127.713 206.535 128.431C207.693 129.871 209.41 131.369 211.276 132.792C215.038 135.661 219.828 138.54 223.209 140.45L225.177 136.967C221.844 135.085 217.243 132.312 213.702 129.612C211.917 128.251 210.505 126.985 209.652 125.924C209.224 125.392 209.016 125.007 208.934 124.769C208.861 124.555 208.942 124.626 208.859 124.8L205.245 123.085ZM224.885 136.832C220.48 135.209 214.85 131.922 209.575 129.321C207.041 128.072 204.551 126.968 202.494 126.468C201.472 126.221 200.378 126.075 199.36 126.247C198.258 126.433 197.182 127.014 196.551 128.188L200.076 130.08C200.001 130.219 199.868 130.217 200.026 130.191C200.267 130.15 200.749 130.161 201.55 130.356C203.139 130.741 205.281 131.664 207.806 132.909C212.651 135.297 218.848 138.87 223.501 140.585L224.885 136.832ZM196.686 127.971C195.778 129.242 195.588 130.669 195.903 132.041C196.199 133.33 196.927 134.53 197.777 135.593C199.477 137.721 202.119 139.853 204.787 141.775L207.125 138.528C204.496 136.636 202.238 134.769 200.902 133.096C200.233 132.26 199.908 131.609 199.801 131.145C199.714 130.765 199.77 130.536 199.941 130.297L196.686 127.971ZM220.149 211.373C228.193 209.279 237.117 210.729 244.082 215.262L246.264 211.91C238.356 206.762 228.273 205.125 219.141 207.502L220.149 211.373ZM244.081 215.262C248.481 218.127 252.051 222.223 253.456 227.009L257.294 225.882C255.552 219.948 251.233 215.145 246.264 211.91L244.081 215.262ZM253.456 227.009C254.864 231.804 253.824 237.279 250.465 240.598L253.276 243.443C257.875 238.899 259.034 231.808 257.294 225.882L253.456 227.009ZM250.465 240.598C247.086 243.936 241.306 244.561 237.809 241.837L235.351 244.992C240.673 249.139 248.697 247.968 253.276 243.443L250.465 240.598ZM237.808 241.836C237.356 241.484 236.963 240.935 236.809 240.465C236.736 240.243 236.744 240.125 236.748 240.1C236.749 240.091 236.748 240.102 236.738 240.122C236.727 240.143 236.717 240.151 236.724 240.145L234.014 237.203C232.541 238.559 232.577 240.401 233.009 241.714C233.436 243.013 234.335 244.202 235.352 244.993L237.808 241.836ZM236.718 240.15C236.718 240.15 236.717 240.151 236.716 240.152C236.714 240.153 236.713 240.154 236.713 240.154C236.711 240.155 236.717 240.151 236.735 240.146C236.773 240.135 236.861 240.119 237.014 240.129C237.338 240.149 237.768 240.271 238.22 240.484L239.922 236.864C239.188 236.518 238.251 236.198 237.262 236.137C236.259 236.074 235.028 236.276 234.019 237.198L236.718 240.15ZM238.216 240.482C243.241 242.858 245.951 249.392 244.373 254.906L248.218 256.006C250.284 248.786 246.883 240.156 239.926 236.866L238.216 240.482ZM244.373 254.906C242.799 260.406 237.38 264.617 231.512 265.23L231.928 269.208C239.244 268.444 246.149 263.239 248.218 256.006L244.373 254.906ZM97.8608 150.225L82.4647 148.413L81.9971 152.386L97.3932 154.198L97.8608 150.225ZM108.548 135.478L87.6122 121.391L85.3792 124.709L106.315 138.797L108.548 135.478ZM106.385 110.963L115.797 125.298L119.141 123.103L109.729 108.768L106.385 110.963Z" fill="white"/>
</svg>
